<svg version="1" xmlns="http://www.w3.org/2000/svg" width="1000" height="190" viewBox="0 0 10000 1900"><g fill="#fff"><path d="M1672 1585c-204-45-386-213-458-425-15-44-19-84-19-195 0-127 3-147 27-213 72-197 213-337 402-398 146-48 340-35 481 30 162 75 298 242 340 417 21 92 19 239-5 334-56 219-247 404-466 450-85 18-218 18-302 0zm271-130c228-59 377-251 378-485 1-185-77-336-224-431-152-99-326-111-483-34-183 89-285 254-285 460 0 152 47 265 156 370 120 115 298 162 458 120zM9002 1585c-220-50-410-237-467-460-21-85-19-235 5-329 53-207 211-378 407-439 315-99 635 30 777 313 54 107 70 195 64 334-12 258-176 478-418 563-94 32-268 41-368 18zm273-130c137-36 263-136 322-255 41-84 52-136 53-241 0-261-184-468-447-503-119-15-277 38-378 126-186 164-223 459-84 667 116 174 334 258 534 206zM4859 1561c-24-24-29-38-29-76s5-52 29-76c24-23 38-29 74-29 74 0 117 57 103 135-15 76-119 103-177 46zM250 960V350h140v1090h460v130H250V960zM3060 1025V480h-270V350h670v130h-270v1090h-130v-545zM3840 960V350h130v1090h460v130h-590V960zM5480 960V350h130v1220h-130V960zM6090 960c0-584 1-610 18-610 12 0 161 164 413 454l394 455 3-455 2-454h130v610c0 593-1 610-19 610-13 0-150-150-408-446l-388-445-3 445-2 446h-140V960zM7540 960V350h620v130h-480v370h480v130h-480v590h-140V960z"/></g></svg>