<svg version="1" xmlns="http://www.w3.org/2000/svg" viewBox="0 0 7730 1530"><path d="M106 1520c-16-5-40-19-53-32-55-51-53-22-53-783V0h180v1350h330v180l-187-1c-104 0-201-5-217-9zm924-12c-30-15-53-37-67-63l-23-40 3-651 2-651 28-36c46-60 69-67 223-67 155 0 189 11 234 77l25 37 3 615c2 339 0 635-3 659-7 50-53 108-102 128-21 9-75 14-156 14-107 0-128-3-167-22zm250-743V180h-160v1170h160V765zm770 90V180h-170V0h520v180h-170v1350h-180V855zm870 653c-25-13-55-38-67-57l-23-34V0h180v1350h340v180h-193c-180 0-196-1-237-22zm850-68v-90h180v180h-180v-90zm610 0v-90h170V180h-170V0h520v180h-170v1170h170v180h-520v-90zm940-607c0-659 1-700 19-739 10-23 34-52 52-65 32-23 41-24 189-24 145 0 157 1 187 23 17 12 41 42 52 65 21 43 21 54 21 740v697h-180V180h-160v1350h-180V833zm940 16c0-450 4-694 11-722 12-50 34-78 80-106 31-19 49-21 232-21h197v180h-330v490h160v180h-160v680h-190V849zm1044 662c-23-10-52-34-65-52l-24-34V763c0-656 0-662 21-690 11-15 36-38 54-50 30-21 44-23 172-23 100 0 147 4 166 14 41 21 81 68 92 107 6 20 10 276 10 647 0 668 1 653-57 715-37 38-79 47-213 47-91 0-124-4-156-19zm246-746V180h-160v1170h160V765z" fill="#fff"/></svg>