<svg version="1.0" xmlns="http://www.w3.org/2000/svg" viewBox="0 0 7730 1530" preserveAspectRatio="xMidYMid meet">
<g id="layer1" fill="#ffffff" stroke="none">
 <path d="M106 1520 c-16 -5 -40 -19 -53 -32 -55 -51 -53 -22 -53 -783 l0 -705 90 0 90 0 0 675 0 675 165 0 165 0 0 90 0 90 -187 -1 c-104 0 -201 -5 -217 -9z"/>
 <path d="M1030 1508 c-30 -15 -53 -37 -67 -63 l-23 -40 3 -651 2 -651 28 -36 c46 -60 69 -67 223 -67 155 0 189 11 234 77 l25 37 3 615 c2 339 0 635 -3 659 -7 50 -53 108 -102 128 -21 9 -75 14 -156 14 -107 0 -128 -3 -167 -22z m250 -743 l0 -585 -80 0 -80 0 0 585 0 585 80 0 80 0 0 -585z"/>
 <path d="M2050 855 l0 -675 -85 0 -85 0 0 -90 0 -90 260 0 260 0 0 90 0 90 -85 0 -85 0 0 675 0 675 -90 0 -90 0 0 -675z"/>
 <path d="M2920 1508 c-25 -13 -55 -38 -67 -57 l-23 -34 0 -708 0 -709 90 0 90 0 0 675 0 675 170 0 170 0 0 90 0 90 -193 0 c-180 0 -196 -1 -237 -22z"/>
 <path d="M3770 1440 l0 -90 90 0 90 0 0 90 0 90 -90 0 -90 0 0 -90z"/>
 <path d="M4380 1440 l0 -90 85 0 85 0 0 -585 0 -585 -85 0 -85 0 0 -90 0 -90 260 0 260 0 0 90 0 90 -85 0 -85 0 0 585 0 585 85 0 85 0 0 90 0 90 -260 0 -260 0 0 -90z"/>
 <path d="M5320 833 c0 -659 1 -700 19 -739 10 -23 34 -52 52 -65 32 -23 41 -24 189 -24 145 0 157 1 187 23 17 12 41 42 52 65 21 43 21 54 21 740 l0 697 -90 0 -90 0 0 -675 0 -675 -80 0 -80 0 0 675 0 675 -90 0 -90 0 0 -697z"/>
 <path d="M6260 849 c0 -450 4 -694 11 -722 12 -50 34 -78 80 -106 31 -19 49 -21 232 -21 l197 0 0 90 0 90 -165 0 -165 0 0 245 0 245 80 0 80 0 0 90 0 90 -80 0 -80 0 0 340 0 340 -95 0 -95 0 0 -681z"/>
 <path d="M7304 1511 c-23 -10 -52 -34 -65 -52 l-24 -34 0 -662 c0 -656 0 -662 21 -690 11 -15 36 -38 54 -50 30 -21 44 -23 172 -23 100 0 147 4 166 14 41 21 81 68 92 107 6 20 10 276 10 647 0 668 1 653 -57 715 -37 38 -79 47 -213 47 -91 0 -124 -4 -156 -19z m246 -746 l0 -585 -80 0 -80 0 0 585 0 585 80 0 80 0 0 -585z"/>
 </g>

</svg>