<!DOCTYPE svg PUBLIC "-//W3C//DTD SVG 20010904//EN" "http://www.w3.org/TR/2001/REC-SVG-20010904/DTD/svg10.dtd">
<svg version="1.0" xmlns="http://www.w3.org/2000/svg" width="479px" height="107px" viewBox="0 0 4790 1070" preserveAspectRatio="xMidYMid meet">
<g id="layer101" fill="#ffffff" stroke="none">
 <path d="M4637 1061 c-6 -2 -15 -9 -20 -15 -11 -17 -7 -355 5 -362 17 -11 140 -5 155 7 18 16 19 342 1 357 -13 10 -118 20 -141 13z m73 -191 c0 -87 -4 -140 -10 -140 -6 0 -10 53 -10 140 0 87 4 140 10 140 6 0 10 -53 10 -140z"/>
 <path d="M158 1053 l-158 -4 0 -525 0 -525 88 3 c81 3 87 4 83 23 -3 11 -6 219 -8 463 l-4 442 25 0 26 0 2 -177 3 -177 67 -39 c37 -21 72 -36 78 -32 6 4 10 79 10 200 l0 194 -27 15 -28 15 28 1 c23 0 27 4 27 27 0 18 11 36 33 54 17 15 30 29 27 32 -10 9 -117 13 -272 10z"/>
 <path d="M550 1052 c-8 -3 -41 -20 -73 -39 l-57 -35 2 -451 3 -451 65 -38 c89 -52 129 -51 221 2 l69 41 0 449 0 449 -67 38 c-65 36 -120 48 -163 35z m70 -522 l0 -400 -25 0 -25 0 0 400 0 400 25 0 25 0 0 -400z"/>
 <path d="M873 1052 c-57 -1 -103 -7 -103 -12 0 -5 14 -18 30 -30 l30 -21 0 -414 c0 -405 0 -414 20 -428 l21 -14 -21 -6 c-14 -4 -20 -13 -20 -34 0 -21 -8 -32 -30 -45 -17 -9 -30 -24 -30 -33 0 -13 20 -15 135 -15 l135 0 75 42 75 42 0 117 c0 114 -1 118 -25 137 l-25 20 25 19 24 18 3 327 3 327 -79 3 c-43 2 -82 0 -87 -3 -6 -3 -6 -16 1 -33 12 -32 14 -596 2 -596 -4 0 -18 7 -30 16 l-23 16 2 299 c1 165 0 301 -2 302 -2 1 -50 1 -106 -1z m167 -848 l0 -74 -30 0 -30 0 0 96 0 95 30 -21 c29 -20 30 -25 30 -96z"/>
 <path d="M1332 1052 c-104 -2 -113 -4 -105 -20 4 -9 9 -208 11 -442 2 -409 3 -426 22 -441 19 -17 19 -17 0 -22 -13 -3 -20 -14 -20 -30 0 -17 -10 -33 -30 -47 -16 -12 -30 -28 -30 -36 0 -11 25 -14 136 -14 l136 0 64 36 c35 20 66 39 69 43 3 6 9 830 6 888 -1 11 -97 72 -131 83 -8 3 -66 4 -128 2z m118 -522 l0 -400 -30 0 -30 0 0 378 c0 348 -1 380 -17 394 -10 9 -25 18 -33 21 -8 3 13 6 48 6 l62 1 0 -400z"/>
 <path d="M1937 1047 c-8 -5 -1 -16 21 -35 l32 -27 0 -344 0 -343 -170 3 -170 4 0 -85 0 -85 170 4 170 3 0 -38 c0 -33 -5 -42 -30 -56 -17 -9 -30 -24 -30 -33 0 -13 20 -15 140 -15 115 0 140 3 140 14 0 8 -13 24 -30 36 -24 17 -30 29 -30 57 l0 35 180 -4 c208 -4 193 -11 188 102 l-3 63 -182 -2 -183 -2 0 375 c0 207 -3 376 -7 376 -83 5 -198 3 -206 -3z"/>
 <path d="M2765 1052 l-210 -2 0 -525 0 -525 85 0 85 0 -3 465 -3 465 25 0 26 0 2 -176 3 -177 64 -39 c36 -21 70 -37 78 -34 10 4 13 47 13 196 l-1 191 -31 19 -31 18 29 4 c23 2 30 9 34 33 3 18 14 34 27 40 24 10 38 35 26 44 -4 3 -102 5 -218 3z"/>
 <path d="M3046 1015 l-71 -40 -3 -447 -2 -446 74 -41 c98 -55 131 -54 225 2 l71 42 -2 445 -3 445 -64 38 c-89 54 -133 55 -225 2z m134 -485 l0 -400 -25 0 -25 0 0 400 0 400 25 0 25 0 0 -400z"/>
 <path d="M3330 1052 c-16 -6 1 -32 31 -48 l29 -14 2 -207 3 -207 65 -38 c36 -21 68 -38 71 -38 4 0 9 87 11 193 5 185 4 193 -16 209 -20 16 -20 16 18 23 20 4 41 4 44 -1 4 -5 5 -120 2 -255 l-5 -246 -85 48 c-47 27 -91 49 -97 49 -10 0 -13 -52 -13 -225 l0 -226 -35 -21 c-64 -37 -43 -43 176 -46 112 -1 214 0 227 3 23 6 30 33 11 52 -6 6 -13 38 -16 72 l-6 61 -65 35 c-84 47 -96 42 -90 -35 l4 -60 -28 0 -28 0 0 96 c0 76 3 94 13 86 28 -23 184 -101 190 -95 4 3 7 176 7 382 l0 376 -62 35 c-62 34 -66 35 -206 40 -78 3 -147 4 -152 2z m167 -129 c-4 -3 -10 -3 -14 0 -3 4 0 7 7 7 7 0 10 -3 7 -7z"/>
 <path d="M3728 1043 c-7 -9 0 -18 26 -34 l36 -21 0 -429 c0 -279 -3 -429 -10 -429 -16 0 -11 -43 10 -88 l20 -42 165 0 c152 0 165 1 165 18 0 10 -13 26 -30 35 -23 14 -30 25 -30 48 l0 29 -65 0 -65 0 0 430 c0 305 3 436 12 455 6 14 9 28 6 31 -12 12 -230 9 -240 -3z"/>
 <path d="M4060 870 l0 -190 40 0 40 0 0 190 0 190 -40 0 -40 0 0 -190z"/>
 <path d="M4180 870 l0 -190 45 0 c33 0 45 4 45 15 0 8 5 15 11 15 6 0 9 -7 5 -15 -4 -12 4 -15 39 -15 l45 0 0 190 0 190 -45 0 c-29 0 -45 -4 -46 -12 -2 -38 -11 -93 -15 -98 -3 -3 -5 11 -4 30 4 78 3 80 -40 80 l-40 0 0 -190z m106 -148 c-12 -11 -15 5 -8 44 l7 39 3 -39 c2 -21 1 -41 -2 -44z"/>
 <path d="M4420 870 l0 -190 75 0 75 0 0 30 c0 28 -3 30 -35 30 l-35 0 0 50 0 50 35 0 c30 0 35 3 35 24 0 21 -6 25 -32 28 l-33 3 -3 83 -3 82 -39 0 -40 0 0 -190z"/>
 <path d="M2485 927 c-12 -7 -81 -14 -170 -17 l-150 -5 -3 -49 c-6 -99 -13 -94 161 -99 83 -2 161 -6 172 -8 19 -4 20 2 23 85 2 49 -1 93 -5 97 -4 4 -17 2 -28 -4z"/>
 <path d="M1657 843 c3 -48 6 -88 7 -88 0 0 71 2 156 5 l155 5 0 70 0 70 -135 6 c-74 3 -147 10 -161 14 l-27 7 5 -89z"/>
 <path d="M1678 694 l-28 -15 0 -153 0 -153 25 -11 c32 -15 70 -15 96 -2 18 10 19 23 19 169 l0 158 -25 11 c-34 15 -54 15 -87 -4z m62 -163 c0 -65 -3 -120 -6 -124 -3 -3 -12 -3 -20 0 -19 7 -21 239 -1 246 24 9 27 -5 27 -122z"/>
 <path d="M1800 695 c0 -8 7 -15 15 -15 12 0 15 -16 15 -80 0 -47 -4 -80 -10 -80 -5 0 -10 -7 -10 -15 0 -8 5 -15 10 -15 6 0 10 -25 10 -55 0 -30 -4 -55 -10 -55 -5 0 -10 -7 -10 -15 0 -12 15 -15 70 -16 39 -1 76 -2 83 -3 25 -2 16 39 -14 63 -25 20 -32 22 -40 10 -6 -10 -9 -6 -9 14 0 24 3 27 35 27 23 0 35 5 35 13 0 19 -33 47 -54 47 -17 0 -18 9 -14 95 l4 95 -53 0 c-40 0 -53 -4 -53 -15z"/>
 <path d="M2170 530 l0 -180 30 0 30 0 0 61 c0 44 3 59 13 56 8 -2 12 -24 12 -60 l-1 -57 33 0 33 0 0 180 0 180 -30 0 -30 0 0 -95 c0 -78 -3 -95 -15 -95 -12 0 -15 17 -15 95 l0 95 -30 0 -30 0 0 -180z"/>
 <path d="M2350 708 c-2 -9 -2 -244 -1 -295 l1 -63 68 0 c40 0 73 5 80 12 19 19 14 56 -8 68 -17 9 -20 8 -20 -10 0 -16 -6 -20 -30 -20 -28 0 -30 3 -30 35 0 35 0 35 45 35 69 0 56 33 -22 55 -21 6 -23 12 -23 71 0 62 1 64 25 64 24 0 25 -3 25 -54 0 -40 4 -55 16 -60 27 -10 34 3 34 69 0 84 -11 95 -96 95 -35 0 -64 -1 -64 -2z"/>
 </g>

</svg>